/* XPM */
static char *_666447_ai_fotor_202403011540531709304092[] = {
/* columns rows colors chars-per-pixel */
"90 90 201 2 ",
"   c black",
".  c #3A5616",
"X  c #49681B",
"o  c #526B18",
"O  c #56731C",
"+  c #465E2C",
"@  c #4B5E2A",
"#  c #515F28",
"$  c #475E31",
"%  c #466325",
"&  c #4B6525",
"*  c #4C6A26",
"=  c #46622C",
"-  c #4B652C",
";  c #476A2A",
":  c #4D6A2D",
">  c #516626",
",  c #536D25",
"<  c #53652B",
"1  c #536D2C",
"2  c #596E2D",
"3  c #4F7226",
"4  c #4E722D",
"5  c #537226",
"6  c #5B7526",
"7  c #5A7A23",
"8  c #54722D",
"9  c #5B742D",
"0  c #55792C",
"q  c #5B7A2E",
"w  c #466331",
"e  c #4B6532",
"r  c #4D6B31",
"t  c #516632",
"y  c #526D32",
"u  c #586D33",
"i  c #4D7232",
"p  c #547332",
"a  c #5A7533",
"s  c #567A33",
"d  c #5C7B33",
"f  c #567539",
"g  c #5A7539",
"h  c #557A3A",
"j  c #5C7C39",
"k  c #61732C",
"l  c #657B29",
"z  c #627B2D",
"x  c #6A6B34",
"c  c #617532",
"v  c #627D34",
"b  c #6A7E33",
"n  c #627D3A",
"m  c #697F39",
"M  c #5E7D40",
"N  c #913F24",
"B  c #994D30",
"V  c #9C5234",
"C  c #A05739",
"Z  c #AE5D3B",
"A  c #EB4218",
"S  c #B77646",
"D  c #BB7D4B",
"F  c #AF7461",
"G  c #CB6E47",
"H  c #C07F49",
"J  c #DD794F",
"K  c #E16A40",
"L  c #5E802E",
"P  c #578233",
"I  c #5D8134",
"U  c #5D823A",
"Y  c #64832E",
"T  c #688628",
"R  c #69832E",
"E  c #70802B",
"W  c #799A2F",
"Q  c #638334",
"!  c #6A8534",
"~  c #658A34",
"^  c #6B8B35",
"/  c #63843A",
"(  c #6A853A",
")  c #658A3B",
"_  c #6B8C3B",
"`  c #728C35",
"'  c #778938",
"]  c #728D3B",
"[  c #6D9236",
"{  c #67913B",
"}  c #6D923B",
"|  c #6E993C",
" . c #749235",
".. c #7A9435",
"X. c #759B33",
"o. c #7B9C36",
"O. c #73943C",
"+. c #7A953B",
"@. c #759A3C",
"#. c #7B9B3C",
"$. c #7CA13D",
"%. c #7AA43C",
"&. c #5D8641",
"*. c #648541",
"=. c #668B42",
"-. c #6C8C42",
";. c #698F49",
":. c #718D42",
">. c #788F42",
",. c #6C9343",
"<. c #6E9946",
"1. c #749443",
"2. c #799542",
"3. c #759A42",
"4. c #7B9C43",
"5. c #759B4B",
"6. c #7D9E4A",
"7. c #7DA243",
"8. c #7BA445",
"9. c #829A36",
"0. c #879A39",
"q. c #829C3C",
"w. c #83A336",
"e. c #83A33D",
"r. c #8AA43C",
"t. c #85AA3C",
"y. c #8CAA3D",
"u. c #94A73F",
"i. c #91AC3E",
"p. c #A5B739",
"a. c #D8A100",
"s. c #F0C33F",
"d. c #908D43",
"f. c #839D42",
"g. c #849E48",
"h. c #9A9644",
"j. c #BF8149",
"k. c #83A344",
"l. c #8AA543",
"z. c #85A942",
"x. c #8CAC44",
"c. c #85A54A",
"v. c #8BA64A",
"b. c #83A94A",
"n. c #8CAC4A",
"m. c #95AB46",
"M. c #92AC44",
"N. c #92AE4A",
"B. c #8EB145",
"V. c #8EB249",
"C. c #94B344",
"Z. c #9AB545",
"A. c #9DBB45",
"S. c #94B44B",
"D. c #9BB54B",
"F. c #97B94B",
"G. c #9CBA4B",
"H. c #8CA854",
"J. c #92AD52",
"K. c #8FB352",
"L. c #93B253",
"P. c #9BB755",
"I. c #A3B745",
"U. c #A2BD45",
"Y. c #A2BB4B",
"T. c #A8BB4B",
"R. c #A3BD53",
"E. c #A7BC56",
"W. c #B7826C",
"Q. c #C3814A",
"!. c #E28D4B",
"~. c #EBAE43",
"^. c #A9C547",
"/. c #A6C24C",
"(. c #ACC34C",
"). c #B5C846",
"_. c #B3C44D",
"`. c #B2CA4C",
"'. c #A7C457",
"]. c #ABC454",
"[. c #B4C854",
"{. c #B9D252",
"}. c #ACC861",
"|. c #D3DA56",
" X c #F2CA55",
".X c #C2D464",
"XX c #F4CF75",
"oX c #E69E80",
"OX c #F9DD90",
"+X c #FBE6AF",
"@X c #D1BECE",
"#X c #D1D9C7",
"$X c #E0CACE",
"%X c #F6DACE",
"&X c #CCD9FF",
"*X c #FDF6E0",
"=X c #E2E9FF",
"-X c #EAEFFF",
";X c #F0F3FF",
":X c #F7F9FF",
">X c #FFFFFF",
/* pixels */
"a b 5 1 a ! ^.e.#./ v ^ 1. .! g.n.o.7 p 4 I !  .k.c.z.0.o. .^ s a a j Q O.3.b.x.,.a v 3.8.4.) ,.;.! ( ~ ~ o.@.1./ 1 g 9 2 @.@.O./ ~ [ ^ q.k.2.:.] 2.] /.t.k.l.~ 2 8 p p : 1 b.#.z.[ ",
"a 0 t d I Q i.} ) v a 3.d 9 I n.C.^ a r = 0 ! o. .~ a g 2 8 a p a / ( | @.O.O.I q a -.#.4.,.p / _ ^ ~ ~ _ @.O.] r r y a _ 3.. = a ~ k.#.} O.@._ O.O.3.t.' z.B.~ : * p : , 8 7.2.7.} ",
"d s g Q ~ z.C.=./ ,.,.,.g r [ B.P.U t r t ^ } ` ^ s s f g ..] p c / ) 5.<.^ q a ( @.k.c.1./ g / Q d Q / / / 0 a p f 4 +.v p e p Q Y 8 p } O./ ~ 8.k.#.@.%.@._ f : r n v Q s a 1.4.[ ",
"k.+.O.4.k.M.C./ n 5.} ! a i Q $.S.p r - r y O._ d : p P d ..] , d ) ) Q / ) 1 & 1.#.` / s Q ) U p p 1 : : = * a h U Q *.: : s s ~ #.v a 1.1.a g 2._ ) 2.8.:.) f w r v _ _ d 6 ~ ^ Q ",
"e.O.@.O.O.C.a j =.U Q k 5.8 a { ) i y 5 & e a v 8 1 p g q v d 1 d d d d f 8 ; 1 _ ) j n g j M p : p 0 1 - - 1 d j U / _ : : s m @.f.s s v / g 1 : y  .] 1.3.) r - a U 1.k.~ I p p 1 ",
"y ) _ 1 Y D.y p ~ : - , 8.3 p U P f ~ /.m.p : 1 _ ,._ ^ } a p s a q a a 0 1 9 q f s q _ i p r ; ; 1 Y d - & 6 d p w v d 0 9 0 D.N.} ! 8 r 8 1 1 1 r -.O.1.4.Q - = j  .1.O.I s 8 3 : ",
"p _ &.y 0 f.& * ; 8 1 8 * v s d I n q. .z w p ,.} | U : : * u } / Q Q p , 1 2 s g u 1 4.p 8 r : * s Q r - : ! d - ; j s 8 s g G.L.Q p * - 1 1 y 1 n *.m -.s 1 + $ U :. .} / 8 r e = ",
"p _ a : q 4.8 : 3 0 9 0 8 p s 8 d I t.*.n * 8 O.[ g d : : d Q 3.~ L q p : & y 8 s n.c.@.r ; 8 [ } O._ = r n ! ] t : 8 p 0 f Q N.n.-.n ] 4.) ) 1.,.=.= w i i & + - m / ^ ) ~ p e : ; ",
"U a 1 > 6 ^ P r p 3 8 r : - ; & p s @.i f y 9 1 - 4 : - 2 ! Q d Q / p 0 , & < , a M.8.; w ; p I v 5 5 1 y Q ` ! t e : r 8 p M H.4.:.j * % 1 _ _ / ) 1 , 4 i * - p s y 0 : 8 2 , : r ",
"d y - = 8 g : e r : ; + = w = + y t ^ a f 8 g e 1 y : y s d c b 7 [ 3.` ] 1 < 0 f B.b.: = * p 8 9 8 8 9 9 f j r a } ,.g t 5 ; 2 a j 0 p ; } s j n  .Y v * : p c ~ 1 * r : p 8 p u ( ",
"s p i d U 9 r r y 1 r + w + = = / O.} : i ; - e y : p J v 7 k ` X./.M.z.` 0 4 , * ! +.~ e : p h p , s 0 g P U } } ] ^ 4.g.G J *._ >._ @.o.v.^ ( ) ( @.O.y p +.N.] ; - 1 * p g j 3.%.",
"s 8 i } 3.1 - r @.[ t.h ; r 8 : Q ` d : : - p #.q.x.l.oXJ Q.h.u.%.r Q [ ^ s : ; ; - * j ~ @.O.@.@.r f f f j / -.O.1.d.h.J XXJ m.b.c.b.O.O.:.` ) / ! c m * r m.S.^ % = y 1 d m @.#.#.",
"8 y j 1.@.y - d o.M.y.*.f 4 : 1 8 8 8 p i 1 p v z.J J >X>X%XJ J J J J _ ^ s y r d / d d ] O.1.5.5.y j n ) / / J J J J J :X>XJ J 4./ } ^ ! y Q n n $._ Q & < r.C.! - % a f @.O.) p U ",
"1 f / 1.Q 1 p O.B.C.v Q ,.5.: p _ / s @.e.q.a _ %.J J >X>X%XJ J J J J 8 d p a a _ @.#.#.) Q j v n p n _ _ >. .J J J J J :X:X>XJ , ^ _ Q a u a a s r.#.- y k.c.e.] * ; Q ~ } _ n p 4 ",
"1 @.2.( r v 4.m.Y 7 v :.L.8.,.,.p p 8 - W ).{._.J >X>X>X>X>X>XJ J J J J J I ~ ~ I ; J J J J J D ) :.O.} J J J J J J >X>X>X>X>X>XJ Q.] y = r R (.'.O.d - ( P.f.n.1.i g ~ } r : e ; f ",
"r 2.O.! u @.l.o.6 5 m -.S.3.;.) p y r > 9._.`.(.J >X>X>X>X>X>X>XJ J J J J J J J J J J J J J J J J J J J J J J J J >X>X>X>X>X>X>XJ H c t = r I.).G.] j 2 8 n.f.z.} z Q @.5.; ; 1 d d ",
"Q [ ! , b.7.( 1 2 y <.8.8.5.=.p 9 8 a 0 4.{.r.Q J >X>X>X>X>X>X>XJ J J J J J J J J J J J J J J J J J J J J J J J J >X>X>X>X>X>X>XJ Q.@.p g ) ^.).Y.! ].].z 4.e.B.$. .t.v.p - : 8 _ ) ",
"Q Y 1 0 +.2.8 1 Q 4.2.4.2.` c > 9 a 0 d l.`. ._ J >X>X>X>X=X>X>X>X=XJ J J J J J J J J J J J J J J J J J J J J =X>X>X>X=X:X>X>X>XJ D O.I d ~ ^..X'.#.i.M._ ,.Q Q [ C.b a p v #.1.) n ",
"~ d p , : 8 9 Q z.5.2.4.4.( +.J.-._ @.@.^ ! b 6 J J >X>X>X=X>X>X=X=X=XJ J J J J J J J J J J J J J J J J J J =X=X=X=X>X=X:X>X>XJ J j._ Q Q A.w.2 0 ^.i.q.2.Q Q ) O.( n Q X.Q #.+._ / ",
"s p : w i a H.m.g.=.b ( 1.J.x.N.4.@.9 R b v ` ^ c.J J =X>X=X=X=X=XJ J J J J J J J J J J J J J J J J J J J J J J =X=X=X=X:X=X>XJ O. .! 9 8 @.O v.D.A.$.| ] p p d U a '.'.[ ( 4.4.#.+.",
"p 1 1 : a p L.P.1.;.d 9 4.D.r.] v ~ k k k ( N.S.D.J J =X>X=X=X=X=XJ J J J J J J J J J J J J J J J J J J J J J J =X=X=X=X:X=X=XJ O.@.0 9 8 _ y H.x.M.5 i p p d a 9  .L.G.^ r.O.! ! ! ",
"1 1 a @.) n L.].,.=.: t b.c.>.) v 9 a a q.l.l.g.+.J J =X=X=X=X=XJ J J J J J J J J J J J J J J J J J J J J J J J J J =X=X=X=X=XJ a g / +.e.1 g K.x.4.Q p p 0 s 8 p C.^ O.@.t. .Q 8 2 ",
": Q ^  . .O.[ ^ 8 y 0 d ! Q @.) s 2 8 b.$.k.q.+.Q J J =X=X=XJ J J J J J J J J J J J J J J J J J J J J J J J J J J J J =X=X=X=XJ p a ] #.4.a 7 P.n.Q g p P 0 f 8 2 $.[ ] j d I d : , ",
"u 0 Q R k.C.I v 1 < n q q z ] -.y * _ 7.e.+._ ] p J J =X=X=XJ J J J J J J J J J J J J J J J J J J J J J J J J J J J J =X=X=X=XJ f g l.4.+.v n L.r.p t d I I 0 2 9 #.[ _ ~ q a r p ` ",
"p 9 9 9 1.k.= 1 < 1 9 p : 1 P j 1 = O.O._ 9 0 q Q J J =X=XJ J J J J J J J J J J J J J J J J J J J J J J J J J J J J J J $X=X=XJ ] c.! h u * q c.#.t 1 d I I a q ~ @.b.Y Q s 2 2 _ [ ",
"1 p a - ; = < > > > 8 y - - j j 8 = R ~ Q p p 9 Q J J =XJ J J J J J J J J J J J J J J J J J J J J J J J J J J J J J J J J =X=XJ z.G.q * e - q 9 6 1 8 I q q d Q ] o.k.c a I s  .#.#.",
"q t : r : : & = - 4 i : - = j j 8 @ z d 9 a d )._.J J J J J J J J J J J J J J J J J J J J J J J J J J J J J J J J J J J J J J J ..`.* y 1 * a 0 8 y 9 U d d Q z.C.Y ! c v Q ~ k...` ",
"a - : p 1 : r w @ : 1 r + - d Q v d 9 s j d 9 s g J J J J J J J J J J J J J J J J J J J J J J J J J J J J J J J J J J J J J J J _./.3 ; : = Q / ~ g I v q 9 ! C.Z.b j p k d s r.] ! ",
"I d _ Q 8 - 1 t y 9 p a ! _ d 0 Q Q d a P a 9                                                                                       p w = = -.} ^ _ } - p d u._.p y , s p a z y.s q ",
"` ) ~ ) d -.q.y.C.4.d a 9.I.Q y s G.D.Y.Z.s p                                                                                       ; + + = F.A.C.#.) 1 , g m.(.8 r p 8 p 1 : w.7 9 ",
"p I d l.S.S.u.1 0 1 a b +.D.a 6 N.;.) ) Q 9 6         >X>X  >X>X                      J J J     >X>X  >X>X                          p g g I O.~ a d Q 7.d Q 4.3.s 1 a 0 % # 8 9.s s ",
"w a d y.^.F.#.e e t ' ' D.Y./ Y C.&.j ~ ~ / Q d J     >X>X  >X>X                      J J J     >X>X  >X>X                      J S 9 j Q d f a 9 d ! B.5.@.( } d 1 8 p % = j r.1 0 ",
"- p * `.D.#.: 1 0 c ' T.I.' ) ] l.d 9 Q ) ) J J J J       >X    >X                  C J J J J       >X    >X                  J J J J Y d d - r | ! b.B.4.2.} } v p 9 8 : d l.M.L s ",
"0 ^ b.&.Q p p O.#.e.F._.] # 4.z.B.k p / f.l.J J J J J       >X>X  >X>X              J J J J J C       >X>X  >X                J J J J ! q 8 ; r C.F.2.3.@.5.1._ a p p g v @.G.w.Q s ",
"} #.c./ p y ] +.+.x.[.[ z ] S.x.7.d s {.U.N.J J J J J       >X>X  >X>X              J J J J J C       >X>X  >X                J J J J ~ 9 i r 3.0.m.-.@. .3.1.,.U i a P b.C.t.8.~ y ",
"p g j a t y :.2.H.M.l.%.! 5.4._  .! T i.#.~ J J J J J                             J Z V V V V J                             J J J J J 1 c O.1.#.e.c.Y 7.O.} ,.O.Q p I 1.C.B.%.| _ v ",
"1 2 g b ] Z.Y.M.S.O.] o.$.7.1.-.v Y `.i.] v J J J J J J                         J J V V V V V Z J                         J J J J J J , } O.b v _ @.] ^ 1.-.) d P v / o.%.w.! v ^  .",
"p p ] ..r.].].N.L. ._  .%.C.n u t A.} O.j Q J J J J J J J J J J J J J J J J >X>X>XN B V V V V N >X>X>XJ J J J J J J J J J J J J J J J > 9 9 d 8 p ) 7.| U h g p a C.V.` o.^ a ! @.@.",
"p U @.y.U.c.2.O.+.k.+.z b ) e : p I.~ ) n ) J J J J J J J J J J J J J J J >X>X>X>X>XN V V V N F >X>X>X>X>XJ J J J J J J J J J J J J J 1 , 8 1 1 ( ! ~ v j p p s v C.C.! I c O.3.e.r.",
"/ _ y v ! ( ` ] :.l.#.8 0 p i 8 a Z.8 q v ( J J J J J J J J J J J J J J >X>X>X>X>X>XF N V N N >X>X>X>X>X>XJ J J J J J J J J J J J J J 9 , s 2 9 a p 2 2 8 r m  . .#.] 8 1 _  .} ( 3.",
"I q 9 u 9 ( 1.2.3.[ 3.0 - y s P d G.1 9 ) ,.J J J J J J J J J J J J J >X>X>X>X>X=X>X>X>XV >X>X>X=X=X>X>X>X>XJ J J J J J J J J J J J J 5 , 0 8 a v y - * 8 p 6 M.=.p p y 9 ,.@.@.e w ",
"q 2 p 1 r M } 3.8.U =.s r d 7.1.Q q f a / s J J J J J J J J J J J J J >X>X=X=X>X>X>X>X>XV >X>X>X>X>X=X=X>X>XJ J J J J J J J J J J J J 8 * : : , y p 1 e 8 :.Y e.2 p g p U O.@.~ r w ",
"p 8 , 1 t n d _ / 1 : = 8 n.b.O.d d I a ; : J J J J J J J J J J J J J W.>X:X:X>X-X>X>X>XV >X>X>X-X-X:X:X>XW.J J J J J J J J J J J J J * - - = a k.7.k.] #.$.~ 1 @ p s ) @.S.#.n 8.,.",
"s d p y 8 9 1 j / Q d v e.F.c._ g s : * - : J J J J J J J J J J J J J V V >X>X>X=X>X>X>XV >X>X>X=X=X>X>X>XV J J J J J J J J J J J J J d a 2 ' r.Z.C.S. .Q d a y t ] / ~  .Q p < 3.} ",
"s 0 8 y 8 p r s g , y f l.n.4._ a g ; r y p v Q J J J J J J J J J J J J V >X>X>X>X>XW.V V V V >X>X>X>X>XV J J J J J J J J J J J J S I q s  .] (  .3.@.+.m d s * t e.q.@.[ , : * Q I ",
"p 9 c d v j 8 i r 1 - $. .@.Q -.r p j G.U.Z.-.v d J J J J J J J J J J J J s.V V >XV G J J J J V >X>XV J J J J J J J J J J J J J C.f.v d 9 p y y g I ~ d 1.9 - > 2.N.X a 2 8 9 t p 1 ",
"+.} O.} j j a 8 p / Q $.1 r s / r 8 / P.E.'.( g d J J J J J J J J J J J J s.s.V V V J J J J J G V V J J J J J J J J J J J J J J Z.b.z ! _ q r : r p j s 3.9 = 9 M.Y.o 1 , s Q _ Q p ",
"#.Q b a g j c O.%.%.@.- i p f Q ( O.[ [ j , ; p f b ^ J J J J J J J J !.s.~.J J J J J J J J J J J J J J J J J J J J J J J J J G.G.k. .^ q - : a 1.O. .a 8 1 k Z.m.d 8 1 8 ) ^ ~ 3.@.",
"c z j a a 2.S.]..._ / g g a j / ! 9.I.Q d 1 p s g _ #.I.J J J J J J J s.s.J J J J J J J J J J J J J J J J J J J J J J J J I.v a v x.z.v 2 d v ( 3.[ Q p : ; & Q , 2 8 / :.) 1.! 6.2.",
"8 8 p v 0.l.R.R.^ / Q ~ @.2.) / ..f.A.2 t s ~ ~ z #.f. .I x J J J J >X>XJ J J J J J J J J J J J J J J J J J J J J J J V I..X1 1 y +.z 0 q ! ~ _ @.O.Q s 8 - - 3 u 1 g @.2.Q e w w w ",
"t a v v.x.#.+.] I.^./.T.#.( n ] y.l.U.1 8 n ] ( Q e.O._ n x V V >X>X>XJ J J J J J J J J J J J J J J J J J J J J J V V V ! @ = = - < a _ ) ! _ *.3.4.~ d s g p p a O.3.s y r @.Z.v.e.",
"1 9 4.^ m p / ] M.M.q...v p a k.].Z.O.1 Q q.' ^ ( ~ [ O.J J J V >X>XJ J J J J J J J @X&X&X&X&XJ J J J J J J J J J V J J J f p : 1 s 9 z 2 1 d @.e.@._ ~ v p c / ] ~ , a 1  .+.` +.@.",
"8 2.2.Q p g / ) U d i 1 p } z.z.]. .O.` ` m 1.] 7 O F.w.J J J >X>XV V a.a.V &X&X&X&X&X&X&X&X&X&X&X&X&XV V a.a.V V V J J J @. .} O.1 & 9 2.1.,.O.2._ _ ^ ` p n / _ ( Q Q @.O.} j Q ] ",
"O.4._ v / d a ( -.g p t f k.x.S./._ ^ O.2.q p r E./.B.V J K >X>XJ J J s.s.s.s.s.>X>X>X>X>X>X>X>X>X>Xs.s.s.s.J J J J J J J V V 5.6.* < 6 @.@. .O.~ <.@.[ ) Q U d n q v ( [ ^ Q y a d ",
"+.q.:.Q !  .f 1._ 9 1 2 x.4.r.f.y.9 9 9 v b a M '.`.9 V J A A J J J J J J s.J J >X>X>X>X>X>X>X>X>Xs.J s.J J J J J J J J J V V p p , / 6.#.@.0 y  .O.O./ v d g n Q t.$.O.^ b 1 : $ & ",
"j t a j ^ k.v / _ 1 9 f.M.f.b. . .p 1 d ! j n 2.` 6 9 V J J J J V J J J J J J J s.>XXX>X>X>Xs.>Xs.J J J J J J J V V J J J V V 8 s g ) 4.` ` 1 y @.4. .t.j Q Q } } , - = : s a 9 p 1 ",
"d r d P _ k.3.O.Q 2 k q.C.o.O.p 9 d v v :.:._ 4.v Q n.V J J J J V J J J J J J J J s.s.OX:XOXs.s.J J J J J J J J V V J J J V V p p f / @.O.O.: d x.F.#.) 9 ! t._ I d p y g I U s s R ",
"U U U a  .#.z._ a 8 R #.@.@.d a s ~ _ #.M.v.@.4.v n k.V J J J J V J J J J J J J J OXOXOXOXOXOX+XJ J J J J J J J V V J J J V V 0 e  .*./ Q 7.0 Y l.#.1.p a +.r.^ d 9 0 #.3._ v 4.k./ ",
") U s , ..#.3.a p p  . .O._ p s #._ q.T./.D.] @._ Q Q V J J J J V J J J J J J J OXOXOXOXOXOXOXOX XJ J J J J J J V V J J J V V p : 4.) *.=.d 9 (  .9 8 ! I.y.' l > : O.m.7.4.#.$.#.n ",
") i p 1 o.c.U r : p O.} Y _ a 8 ! Q D.I.q./ 4 p R ` p V V J J J V J J J J J J J OXOX X Xs.s.OXOXs.J J J J J J J V V J J Z V V : * _ v / :.e 4 p d p Y @.x.2.! ! z }.N.] Q #.$.O.! d ",
"U d s 0 #.7.4 - y p ] / p ) v 8 ! [.[.f.` u r 0 r J J V V J J J V J J J J J J J OXOX X>X>X>X*X~.s.J J J J J J J V V J J Z V J J a Q r : 8 e i : e : Q C._ ` ! ~ Y `.M.( z 2.4.O.~ / ",
"U d 8 p #.7.r $ e r } ] 1 Q Q I +.e.f.+.4.j d d S J J V V J J J V J J J J J J J OXOXOXOXOXOXOXXXJ J J J J J J J V V J J Z V J J J q t p p r r - - & 8 w.Q v ! 4.l.M.r.v d #.3.2.p a ",
"m b p - ! [ = = ; t j n < a v d I } O.@.n d d Y S J J V V J J J V J J J J J J J J OXOXOXOXOXOXOXJ J J J J J J J V V J J Z V J J J : t i p 4 y Q y + & 5 p 4 ] i.y.9.v 8 8 _ 3.} p , ",
"v n y - 9 a r - p c 6 6 < 1 d p p 1.| 4./ Q ! J J J J V V J J J V J J J J J J J OXOXD >X>X>XOXOXs.J J J J J J J V V J J Z V J J J J s t ( d 0 _ & % & 8 q f ..Z.Z.M.s i : -.1.8 1 p ",
"i 4 4 = & - ; - 9 b l 6 2 < v y r ~ 1.d / _  .J J J J V V V J J V J J J J J J J OXOX X>X>X>XOXOXs.J J J J J J J V V J V V V J J J J 1 r ~ $.+.v - = & > a j I.y.: i g 9 j Q Q d g s ",
": - = = & - 1 1 b l.r.E l 6 9 : p ) ( O.} O.0.J J J J J J V J J J V V J J J J J OXOXXX*X*X*XOXOXs.J J J J J J V J J J V G J J J J J 1 1 m d d - : 8 1 & a ) I.^ 1 1 0 s Y Q ! ! p Q ",
"- r w - 8 q k ' _.).E.Y.u.b 9 a v _ ] @.#.v.J J J J J J J V J J J V V J J J J J OXOXOXOXOXOXOXOXs.J J J J J J V J J J V G J J J J J J J d : - - s 0 a : 8 4. .: < y p 7 Y Q ! ' +.@.",
"p - r 1 q b z U.I.l.l.+.b ! Q Q  .4.#.I.l.c.J J J J J J J V J J J V V J J J J J J OXOXOXOXOXOXXXs.J J J J J J V J J J V G J J J J J J J 4 ; , p s j a 1 3.3./ e < a p p q Q ! ] #.l.",
"g y ~ Q d 0.W Y.n.4.4.6.( ) _ b 2.#.0.q.' ! J J J J J J J V V V J V V J J J J J J J J J s.J s.J J J J J J J J V J J V V G J J J J J J J a g ^ c.o.#.#.4.2.v g r : p 7 Q O.! ! Q l.n.",
"g p Q Q 8 (.e.O.j / ( Q 2.} 2.v.P.C.l._ +.l.J J J J J J J J V V J J J V J J J J J J J J V J J J J J J J J V V J J J V J J J J J J J J J b } x.M.c.b.S.} ( g h u a ( q.b.$.n ! #.x.] ",
"U 0 0 a p _.r.] / a b.k.q.k.4.f.[.S.v./ +.k.J J J J J J J J V V J J J V J J J J J J J J V J J J J J J J J V V J J J V J J J J J J J J J l.C.O._ 5.b.S.! 8 1 / ! S.Y.S.x.f.Q q.I.e.( ",
"Q ! ^ ( ! ^ ] _ ( ( 9 5 0 5 9 +./.4.] ~ Q z J J J J J J J J V V J J J V J J J J J J J J V J J J J J J J J V V J J J V J J J J J J J J J x.f.-._ 4.] a a 1 1 v N.@.O.O.@.2.7.M.O./ O.",
"v  . .} } ! _ [ ) b v / p y I ~ l.+._ j v Q J J J J J J J J V V J J J V J J J J J J J J V J J J J J J J J V V J J V V J J J J J J J J J ^ ! _ ( 2.] d n Q b ) k.4.2.O.) g.7.k.) ] 4.",
"( #.Q 9 6 #.l.b.b.R v ] 2.8.e.I g.v.) U a c J J J J J J J J J V J J J J V J J J J J J J V J J J J J J J V J J J J V J J J J J J J J J J ~ d v v p a n / ( ] 2.) ) ) _ O.2. .! e.O.~ ",
") ..0 y : k.x.t.=.>.O.] v a / O.x.g.Q j 1 k ^ J J J J J J J J V J J J J V J J J J J J J V J J J J J J J V J J J J V J J J J J J J J  .O.( a a a a s m ) 8.@.,.} 8 a c $.9 1 8 ! Y a ",
" .! a 1 8 O.$._ *.<.O.c 1 g U B.x.#.) I q #.q.J J >X>X>X>X>X>XV J J J J >X>X>X>X>X>XJ J V J J oX>X>X>X>X>XJ J J J V >X>X>X>X>X>XJ J m u p 9 s n j g <.4.4.} 1.^ a z Q ( 2 y I j j y ",
"..^ < : 8 Q 4.8.} p p f r n ^ <._ / -.-. .O._ J >X>X>X>X>X>X>X>XJ J J >X>X>X>X>X>X>X>XV V V >X>X>X>X>X>X>X>X>XJ J >X>X>X>X>X>X>X>X%X0 8 s 9 9 n b.] ( 1.3.O.} Q Q Q 1 2 d d 7.8.d d ",
"Y & ; ; p d 3.O._ 1 y a U _ 4.9 9 2._ a z 9 d v >X>X>X>X>X>X>X>XJ J J >X>X>X>X>X>X>X>XV V V >X>X>X>X>X>X>X>X>XJ J >X>X>X>X>X>X>X>X#Xy q p 9 ! ! n.O._ 1.=._ b v Q / 1 q I U ~ Q a 1.",
"% = ; 2 Q q.+.O.p p *.4.#.Q c Q ^ a g 8 t 5 9 >X;X-X>X-X-X>X-X-X>XJ >X-X-X>X-X-X>X-X:X>XV >X>X-X>X>X-X>X>X-X>XJ >X>X-X>X;X-X>X-X-X>Xd ,.k 9 2.w.O.} =.,.r * 1 8 4 9 6 d f I d q r 8.",
"; e 1 8 R #...+.- p ) b.#.) 9 Q ~ p j d a q d >X-X=X>X=X=X>X=X=X>XJ >X=X=X>X=X=X>X=X:X>XV >X>X=X>X>X=X>X>X=X>XJ >X>X=X>X-X=X>X=X=X>X .z k c L.V.) ) h p r e 8 p : i I } _ 2.2.,.U ) ",
"- ; ~ ^ Q 4.+.' = a { k...8 t 9 d n j v a 9 9 >X-X=X>X=X=X>X=X=X>XJ >X=X=X>X=X=X>X=X:X>XV >X>X=X>X>X=X>X>X=X>XJ >X>X=X>X-X=X>X=X=X>X' _ I d L.n./ j a ; t ; 8 p p i d m k.#.@.~ P p ",
": > q I v ( ] q.& I ! ! _ * 8 q Q ) / v v u 9 =X=X=X=X=X=X=X=X=X=XJ =X=X=X=X=X=X=X=X=X=XV =X=X=X=X=X=X=X=X=X=XJ =X=X=X=X=X=X=X=X=X=Xg s I / Q ~ *.n 0 p s p y y y v ) $.a c u u i p ",
"t e g d 2 1 ] ] - 1 ! z 9 2 s 2 y / ( ( ) 8 d q 9 1 r 1 y / j 8 y p p p j a / ( ^ / d ) } ~ d r - = ; - 9 l.M.l.M.z 1 - p = = a : i s s Q ) / / _ ) O W Q : : y y ~ } #.c 9 a 4.#.@.",
"r , Y d < 2  .( 1 - b 5 p 8 8 y h U P.C.C.C.,.q , 4 1 t y g a : y j s P s 0 s d d n n a I P g y - - * p d q...+.r.x. .O.4.4.4.] f h _ ~ ~ _ 3.,.6 e.D.C.:.r 9 #.f.$., y X.4.f.4. .~ ",
"t 2 d - - 2 } O.r 8 k > 1 1 p p : R./.r.l.N. .Q 8 1 8 8 y t p y y 8 p 8 s 8 - f g Q / 0 p / d j p p 4 p a ` ' ` q.l.u.Y.T.f.@.=.p g ) ~ ~ _ 3.O.1 1 u r t e 8 $.2.p y p #.c.g.d s p ",
"I Q Q < t k c z 2 k ! ! R.y 9 ! T (.C.*.&.j > , q s [ ..O.2.v : 2 #.z.x.r.~ : a M j ) s g Q 3.) v p i a a +.#.k.l.x.k.m.2. ._ b Q Q Q m Q v 8 = * : e e r e , q a 8 d *.O.k.O./ p r ",
"I s p 2 > ( m.9 a c ( 0.G.Q Q q.[.d q *.*.a 9 2 ( ! w.i.R.T.x.g.g.b.k.#.2.- 8 p / 1. .#.4.3.4.} ~ s y ; 8 R.L.A.; 2 2 5 9 m z a Q @.7.k.2.p r = = r p 8 p p f 7 f r a ) *.j d a r f ",
"d a e * - _ J.c 9 c 4.M.l. .v ( 6 ( ( a 1 1 Q  .` ` $.o._.(.C.M.l.w.w.e.^ - : p ) @.O.$.@.) ,.@.Q p y t < E.[.U.= + - = - y 2 4.@.@.^ * 8 p f j / ^ p ) 3.+.q.U.#.O.[ / y 1 1 2 k.*.",
"f 1 w : < O.G.2 6 b l.7.2. .g 8 y ! b - a #.O.4.q.f.] 1 p p p y y - : r 2 d Y ^ @.O.~ Y v Q b _ ) u s p , |.p.p w w > . . 9 d b.4.} q - - y j Q ) _ c _ #.f.M.U.#.} d j g y ^ t.7./ ",
"9 8 ; 1 8 ] S. .' ..g.' c r i q.[.] p 1 v 4.4.4.y.m.Z.x.u p : e = ; t y a *.@.4.2.) d j b ,.7.7._ / @.{ g s - + e a P k.7.O.^ ^ _ / r ! O.N.M.c.g a +.y.#.U.U.0.Q Q j ; f I ) _ n i "
};
