/* XPM */
static char *VEC_SAV_277_17_ai_fotor_202403011624111709306662[] = {
/* columns rows colors chars-per-pixel */
"90 90 195 2 ",
"   c #451E00",
".  c #6E3309",
"X  c #623530",
"o  c #39530E",
"O  c #365315",
"+  c #0B7833",
"@  c #4C660F",
"#  c #44621E",
"$  c #486B1A",
"%  c #4A6A1B",
"&  c #59741D",
"*  c #455E2C",
"=  c #4A5E2B",
"-  c #435F31",
";  c #466325",
":  c #4B6426",
">  c #476A26",
",  c #4C6A26",
"<  c #46632C",
"1  c #4A652C",
"2  c #45692C",
"3  c #4D6B2C",
"4  c #516626",
"5  c #536C24",
"6  c #52662C",
"7  c #586629",
"8  c #526D2C",
"9  c #5A6E2D",
"0  c #4D722D",
"q  c #4D7829",
"w  c #547225",
"e  c #5B7526",
"r  c #597B27",
"t  c #54722D",
"y  c #5A742D",
"u  c #557A2D",
"i  c #5B7A2E",
"p  c #466432",
"a  c #4B6531",
"s  c #4D6B32",
"d  c #4D6B38",
"f  c #516532",
"g  c #526D32",
"h  c #596F32",
"j  c #506838",
"k  c #4E7232",
"l  c #547332",
"z  c #5A7533",
"x  c #557A33",
"c  c #5C7B33",
"v  c #557439",
"b  c #5A7539",
"n  c #557A39",
"m  c #5C7C39",
"M  c #657D24",
"N  c #62742C",
"B  c #637C2D",
"V  c #617631",
"C  c #627D34",
"Z  c #697E34",
"A  c #627E3A",
"S  c #697E3A",
"D  c #7E4440",
"F  c #5F7D41",
"G  c #607E42",
"H  c #8E4113",
"J  c #AA592E",
"K  c #817C66",
"L  c #BC7E67",
"P  c #5E822E",
"I  c #5C8234",
"U  c #5D833A",
"Y  c #5D883C",
"T  c #63832E",
"R  c #69832F",
"E  c #65882C",
"W  c #698C2F",
"Q  c #7D8C25",
"!  c #72872D",
"~  c #799A2F",
"^  c #638334",
"/  c #6A8434",
"(  c #658A34",
")  c #6B8B35",
"_  c #63843B",
"`  c #6B853A",
"'  c #658A3B",
"]  c #6B8C3B",
"[  c #728C35",
"{  c #798E35",
"}  c #74863A",
"|  c #728D3B",
" . c #7B8C3A",
".. c #659237",
"X. c #6D9135",
"o. c #66903C",
"O. c #6D923B",
"+. c #6E993D",
"@. c #739335",
"#. c #7A9434",
"$. c #769A35",
"%. c #7B9C35",
"&. c #73943C",
"*. c #7A943B",
"=. c #759A3C",
"-. c #7C9B3D",
";. c #7DA137",
":. c #7CA13C",
">. c #78A63F",
",. c #5F8441",
"<. c #648541",
"1. c #658D41",
"2. c #6C8D42",
"3. c #688B45",
"4. c #728E43",
"5. c #6C9343",
"6. c #6E9949",
"7. c #749442",
"8. c #7A9442",
"9. c #759B42",
"0. c #7B9C43",
"q. c #74944A",
"w. c #7A9749",
"e. c #759A4A",
"r. c #7B9B4B",
"t. c #7DA143",
"y. c #79A545",
"u. c #7DA34A",
"i. c #849D35",
"p. c #83933B",
"a. c #839D3C",
"s. c #84A33C",
"d. c #8BA43C",
"f. c #85AB3B",
"g. c #8DAA3E",
"h. c #9AAB39",
"j. c #F8B01E",
"k. c #ADC43F",
"l. c #839E43",
"z. c #809E48",
"x. c #99974A",
"c. c #83A444",
"v. c #89A543",
"b. c #84AA43",
"n. c #8CAC44",
"m. c #84A44A",
"M. c #8AA449",
"N. c #85A84C",
"B. c #8BAC4B",
"V. c #91A743",
"C. c #92AC43",
"Z. c #93AD4A",
"A. c #99AF4E",
"S. c #8AB043",
"D. c #8DB149",
"F. c #94B344",
"G. c #99B346",
"H. c #9DBC45",
"J. c #93B24B",
"K. c #9AB54A",
"L. c #97B84D",
"P. c #9CB94B",
"I. c #8BA954",
"U. c #93AA51",
"Y. c #8DB459",
"T. c #93B354",
"R. c #98B657",
"E. c #9DBD51",
"W. c #A2BB46",
"Q. c #AABD46",
"!. c #A2B74E",
"~. c #A4BC4B",
"^. c #ABBB4E",
"/. c #A5BB55",
"(. c #A3BC54",
"). c #AABD54",
"_. c #A6C14A",
"`. c #ACC34C",
"'. c #B4C947",
"]. c #B4C54B",
"[. c #B4CA4D",
"{. c #BAD04B",
"}. c #A6C253",
"|. c #ADC353",
" X c #AAC65D",
".X c #B1C553",
"XX c #B9C651",
"oX c #AFC862",
"OX c #ADD26A",
"+X c #BED56E",
"@X c #D3DA57",
"#X c #BF9B8B",
"$X c #B3AC8F",
"%X c #D5BEB0",
"&X c #D2C9A8",
/* pixels */
"z B y 8 z / H.d.-._ / | ] @./ m.b.%.r l k C / #.m.c.n.a.-.@.) c z z I ^ *.9.u.J.7.l _ &.u.m._ 6.2./ _ ( ( -.$.7.' g b t 9 -.=.] _ T X.) 0.b.9.4.| &.| }.f.v.v./ w t l l 3 8 B.9.f.O.",
"z u f c P ^ F.O._ C z 9.c z ( B.F./ c g : t / %.&.) z l 8 t x z z _ <.=.&.&.+.P u z 5.0.0.O.l _ ] ) ) ) ` =.&.] 3 d g V ] 9.O < c / t.:.&.*.*.| &.&.0.s./ b.n.( 3 s l 3 3 w c.&.>.| ",
"c x b ^ ( v.F.5._ 6.] 5.b d W S.E.<.l a a ) O.[ ) z u x z #.[ z C _ ' 9.6.X.i l / &.c.l.9.' b _ I C P _ ' U t z l b k -.c h 3 k ^ T u z 7.7._ ^ t.c.:.=.s.&.2.x 3 a c C ^ z m &.u.X.",
"c.*.&.0.c.C.S.U A e.O./ z l ' -.D.l a a d g O.] x 8 d I c *. .8 z ] _ U _ 1.8 : q.-.| ' z ^ _ U u l 3 3 3 : , z n I C <.3 s l c ) l.m z r.O.l m 9._ ] w.y.4.' l a d ^ ) ] c z E ) A ",
"s.&.=.7.@.G.z m 1.I ^ V e.> x 5.Y l 3 w : 1 x m l g g x c C c 3 x m c C x t < 8 ] ' m m c m F g 1 z u 8 1 : 6 I U m _ ` 0 1 u Z =.a.i c A _ l 3 8 8 *.] &.e._ s 1 x m &.t.' u x t 8 ",
"g ] ) 3 i G.l t Y 3 : 5 =.% l U I b ) ~.C.l 8 7 ] O.] ) ] l t l c y i l u g 9 i x l y ] k n 3 3 < 3 P P 2 : e c l p I i y u l P.T.O./ 0 3 u 8 8 3 a 2.&.9.-.^ 1 < c &.7.&.( u 8 t 3 ",
"l ] ,.g i a.: 1 > 8 8 8 % i i c U c l.! y < y 5.O.O.U 3 8 , l +./ I ^ l 8 8 8 c y b 8 0.l t a 0 > x _ a a s / c 1 a b c u l x P.R.^ y 3 1 g 8 f 8 A <.A 2.z 3 * p _ 7.| O._ t d 1 ; ",
"l ` x 3 w 0.t 8 8 r y u 8 l x l c P f.<.m 3 0 O.+.x c 3 8 i C 9.) c c w 3 6 g w z B.N.9.s 2 g X.&.&.X.= a C / | 1 3 t t x c A Z.B.2.m O.9.` ] 7.5.2.= p k 0 ; = 1 A ^ ) ] ^ l a a 2 ",
"m x 8 : 5 ) I 3 t q t 2 s a 1 ; g x =.k v l z t 1 0 3 2 t / ^ I ^ _ c t 5 : 6 8 c g.N.s * > v C ^ w y 8 8 ^ [ ) f a s 3 l l F I.l.4.m 3 # 8 ] 5./ _ 8 9 0 0 , a l u g t , g l t 8 s ",
"m g 1 ; y x 3 p s 3 , * * p ; * g 8 ) z x 3 z a 8 g 3 s c V V B & ..9.) [ l 6 l u n.Y.3 2 3 l u t t 8 c t b b d x O.5.c f w 8 6 b m u l 3 ) y m ^ O.B ^ 3 s 8 z ) 8 8 3 1 z t 8 l ` ",
"c 0 k c U l d a g 8 3 p - < : < _ | O.s g 1 1 a 3 1 l l C e C W ~ H.C.b.W y 0 , , E @.( 1 2 k l l 8 x z x m U O.&.| ) 0.m.M.) <.2.7.] =.=.B.) _ ' ` =.@.g l *.Z.X.> 1 8 4 l x m &.>.",
"x t l ] 9.8 3 3 &.X.s.x 3 s t 1 ^ W c 3 3 3 l *.s.g.v.:.:.s.s.s.;.l ^ O.] i 3 2 1 < : c ) =.=.=.O.3 z n l m A O.2.&.&.0.0.b.8.C.m.c.m.&.&.| [ ' ' S B B * 3 G.Z./ ; < 8 g c _ &.0.-.",
"8 g m w.9.g 2 c %.C.n.' z 0 3 8 5 y l t k 1 l ^ b.-.L L L L L L L L L L L L L L L L L L L L L L x.L L L L L L L L L L L L L L L L L L L L L L L L L L L L L L L / 1 ; z n =.&.' t U ",
"g b U 7./ 8 g *.n.F.C A 5.e.3 l ] _ x =.s.a.z 2.:.$.L L L L L L L L L L L L L L L L L L L L L L L L L L L L L L L L L L L L L L L L L L L L L L L L L L L L L L O.3 , C ' ] | A l t ",
"g *.&./ 3 V 0.Z.& & C 4.J.u.5.5.l l t 1 ~ k.[.'.J J H H H H H H H H H H H H H H H H J J J J J J H H H H H H H H H H H H H H H H H H J J J J J J H H H H H H H H &.k b ( O.d 3 d < x ",
"s *.9./ b =.s.=.w & S 5.Z.5.5.U g g s 5 #.].[.^.J J H H H H H H H H H H H H H H H H J J J J J J H H H H H H H H H H H H H H H H H H J J J J J J H H H H H H H H ^ B i @.u.> , s u c ",
"_ X.B t c.b.` 8 6 l e.u.u.9.' z l 0 t u 8.{.s.^ J J H H H H H H H H H H H H H H H H J J J J J J H H H H H H H H H H H H H H H H H H J J J J J J H H H H H H H H s.[ s.v.l 3 3 l ] ' ",
"( T t y &.r.t 8 / 9.&.0.w.[ N 6 8 c J J J J J J L L H H H H H H H H H H H L L L J J J J J H H H H H H H H H H H H H H H H H H H J J J J J H H H H H H H H $X$X$XX.F./ z l c -.&.' _ ",
"E c l 0 s t y B b.e.8.0.0.} [ Z.4.X.J J J J J J L L H H H H H H H H H H H L L L J J J J J H H H H H H H H H H H H H H H H H H H J J J J J H H H H H H H H $X$X$XO.` A ( $.T *.*.] _ ",
"c h 3 p k z I.C.m.2.Z ` 5.R.n.A.0.=.J J J J J J L L H H H H H H H H H H H L L L J J J J J H H H H H H H H H H H H H H H H H H H J J J J J H H H H H H H H $X$X$X' c OX X) / 0.t.*.*.",
"8 8 g > t l T.E.7.3.C z z.A.h.G L L L L L H H H H H H H H H H H L L J J J J J J H H H H H H H H H H H H H H H H H H J J J J J J J J H H H H H H H H $X$X$X$X$X$X9 *.L.L./ d.&.) R / ",
"8 8 l =.' C T.}.5.3.3 s z.l.l.4.L L L L L H H H H H H H H H H H L L J J J J J J H H H H H H H H H H H H H H H H H H J J J J J J J J H H H H H H H H $X$X$X$X$X$Xl C.X.@.=.g.=.^ w z ",
"3 _ ) &.@.O.) ) l 8 g i / J J J L L H H H H H H H H H H H H H H J J H H H H H H H H H H H H H H H H H H H J J J J J J J J H H H H H H H H $X$X$X$X$X$X$X$X$X$X$Xt t.[ ] c c I c 3 8 ",
"z u / R v.F.I c 8 6 _ c N J J J L L H H H H H H H H H H H H H H J J H H H H H H H H H H H H H H H H H H H J J J J J J J J H H H H H H H H $X$X$X$X$X$X$X$X$X$X$Xy -.) X.( i z 8 g [ ",
"y z y y 9.t.= 6 5 6 i z j J J J L L H H H H H H H H H H H H H H J J H H H H H H H H H H H H H H H H H H H J J J J J J J J H H H H H H H H $X$X$X$X$X$X$X$X$X$X$X) *.b.^ ^ z 9 8 | X.",
"8 8 z 2 < p 3 4 4 4 L L L L L L L L L L L L L L L L L L L L L L L L L L L L L L L L L L L L L L L L L L L L L L L L L L L L L L L L &X&X&X$X$X$X$X$XK K K K K K O.$.t.N c c c *.t.%.",
"i f 1 g 3 8 < ; : t L L L L L L L L L L L L L L L L L L L L L L L L L L L L L L L L L L L L L L L L L L L L L L L L L L L L L L L L &X&X&X$X$X$X$X$XK K K K K K G.T / C V _ / t.#.] ",
"z 1 3 l 8 s 3 a = 3 L L L L L x.L L L L L L L L L L L L L L L L L L L L L L L L L L L L L L L L L L L L L L L L L L L L L L L L L L &X&X&X$X$X$X$X$XK K K K K K G.C m l y c i f.) / ",
"c c ' _ t 1 8 f g 9 z z / &.r i &X&X$X$X$X$X$X$X&X&X&X&X&X&X&X&X&X&X&X&X&X&X&X&X&X&X&X&X&X&X&X&X&X&X&X&X&X&X&X&X&X&X&X&X%X&X&X&X&X&X&X&X&X$X$X$X$X$XK K K K K K l g 0 c l y r g.y i ",
"| ) / ' c ] a.n.L.=.x V p.C.c l &X&X$X$X$X$X$X$X&X&X&X&X&X&X&X&X&X&X&X&X&X&X&X&X&X&X&X&X&X&X&X&X&X&X&X&X&X&X&X&X&X&X&X&X%X&X&X&X&X&X&X&X&X$X$X$X$X$XK K K K K K t s 8 u l 8 , i.B u ",
"g U I s.F.K.V.y c l y Z #.G.C w $X$X$X$X$X$X$X$X$X$X&X&X&X&X&X&X&X&X&X&X&X&X&X&X&X&X&X&X&X&X&X&X&X&X&X&X&X&X&X&X&X&X&X&X&X&X&X&X&X&X&X&X&X$X$X$X$X$XK K K K K K c 8 l y ; : 8 -.z c ",
"< z c g.H.H.-.d a g  . .!.~.^ _ $X$X$X$X$X$X$X$X$X$X&X&X&X&X&X&X&X&X&X&X&X&X&X&X&X&X&X&X&X&X&X&X&X&X&X&X&X&X&X&X&X&X&X&X&X&X&X&X&X&X&X&X&X$X$X$X$X$XK K K K K K c 8 y t * * A d.0 t ",
"2 l 3 [.P.-.3 l 3 w [ /.!.{ ` | $X$X$X$X$X$X$X$X$X$X&X&X&X&X&X&X&X&X&X&X&X&X&X&X&X&X&X&X&X&X&X&X&X&X&X&X&X&X&X&X&X&X&X&X&X&X&X&X&X&X&X&X&X$X$X$X$X$XK K K K K K C t y t 3 w v.C.P u ",
"w ) c.,._ g l &.-.s.G.'.| 7 0.b.$X$X$X$X$X$X$X$X&X&X&X&X&X$X$X$X$X$X&X&X&X&X&X&X&X&X&X&X&X&X&X&X&X&X&X&X&X&X&X&X$X$X&X&X&X&X&X&X&X&X&X&X&X$X$X$X$X$XK K K K K K x l l b C X.H.s.( x ",
"5.a.v.G l 8 | *.8.n..X@.B | J.D.$X$X$X$X$X$X$X$X&X&X&X&X&X$X$X$X$X$X&X&X&X&X&X&X&X&X&X&X&X&X&X&X&X&X&X&X&X&X&X&X$X$X&X&X&X&X&X&X&X&X&X&X&X$X$X$X$X$XK K K K K K U g z I b.F.f.y./ 3 ",
"l l m z s g ` l.U.C.v.%.^ r.=.] $X$X$X$X$X$X$X$X&X&X&X&X&X$X$X$X$X$X&X&X&X&X&X&X&X&X&X&X&X&X&X&X&X&X&X&X&X&X&X&X$X$X&X&X&X&X&X&X&X&X&X&X&X$X$X$X$X$XK K K K K K ^ l I 7.F.F.>.+.) c ",
"8 8 z } | K.~.Z.D.&.| %.:.c.7.2.$X$X$X$X$X&X&X&X&X&X$X$X$X$X$X$X$X$X&X&X&X&X&X&X&X&XH H H H H H H H H H H H H H H H H H H H H H . . &X&X&X$X$X$X$X$X$X$X$X$X$X$XI c ' #.;.s.B C [ O.",
"l g | #.d.}.}.Z.J.&.] &.:.S.A g $X$X$X$X$X&X&X&X&X&X$X$X$X$X$X$X$X$X&X&X&X&X&X&X&X&XH H H H H H H H H H H H H H H H H H H H H H . . &X&X&X$X$X$X$X$X$X$X$X$X$X$Xx F.B.[ =.) c / -.=.",
"b I 9.d.H.v.8.| *.b.#.B C ] 3 3 &X&X&X&X&X&X&X&XH H H H H H H H H H H H H &X&X&X&X&XH H H . . . . . . . . . . . . . . . . H H H . . &X&X&X$X$X$X$X$X$X$X$X$X$X$XZ C.J.( B i ] 9.s.d.",
"' ' 8 C / ` | | 4.b.*.y t l 0 0 &X&X&X&X&X&X&X&XH H H H H H H H H H H H H &X&X&X&X&XH H H . . . . . . . . . . . . . . . . H H H . . &X&X&X$X$X$X$X$X$X$X$X$X$X$X&.%.| w h 2.$.O.2.u.",
"I i z g z _ | 0.9.=.9.l ; g x I &X&X&X&X&X&X&X&XH H H H H H H H H H H H H &X&X&X&X&XH H H . . . . . . . . . . . . . . . . H H H . . &X&X&X$X$X$X$X$X$X$X$X$X$X$X2.z l 8 y &.=.&.p 2 ",
"i 5 l 8 g A O.7.9._ Y c a c u.7.&X&X&X&X&XH H H H H       J J J     H H H H H H &X&XH H H . . . X X D D D X X X X X X X X H H H . . &X&X&X$X$X$X$X$X$X$X$X$X$X$X9 0 v l Y 7.&.( a p ",
"z l 8 8 6 _ C ` _ 8 , < c n.B.O.&X&X&X&X&XH H H H H       J J J     H H H H H H &X&XH H H . . . X X D D D X X X X X X X X H H H . . &X&X&X$X$X$X$X$X$X$X$X$X$X$X- g x ' &.F.-.C N.5.",
"x x l 8 l z t c _ U c C s.L.c.] &X&X&X&X&XH H H H H       J J J     H H H H H H &X&XH H H . . . X X D D D X X X X X X X X H H H . . &X&X&X$X$X$X$X$X$X$X$X$X$X$Xj ] / ( @.^ t 8 =.5.",
"x y l g 3 l s x z w g b M.n.0.2.&X&X$X$X$XH H H           J J J           H H H &X&XH H H . . . X X D D D X X X D D X X X H H H . . &X&X&XK K K K K $X$X$X$X$X$X7 s.%.=.[ 5 3 1 c ^ ",
"l y z c _ c 8 l s 8 1 t.*.=.' 3.&X&X$X$X$XH H H           J J J           H H H &X&XH H H . . . X X D D D X X X D J X X X H H H . . &X&X&XK K K K K $X$X$X$X$X$Xw.Z.% z t t y k 0 8 ",
"-.X.*.] A c z t l _ P t.0 3 k <.&X&X$X$X$XH H H           J J J           H H H &X&XH H H . . . X X D D D X X X D D X X X H H H . . &X&X&X$X$X$XK K K K K $X$X$XC.H.% 8 8 x ^ ` _ l ",
"-.^ A V l m C &.;.=.+., s l v F &X&X$X$X$XH H H           J J J           H H H &X&XH H H . . . X X D D D X X X D D X X X H H H . . &X&X&X$X$X$XK K K K K $X$X$XC.V y 8 y _ ) ) =.0.",
"V i m z z 8./.|.#.2._ z l l m / &X&X$X$X$XH H H           J J J           H H H &X&XH H H . . . X X D D D X X X D D X X X H H H . . &X&X&X$X$X$XK K K K K $X$X$Xo 8 l ^ r.] e.` N.w.",
"w l z V #.v.(.E.| / ^ / 9.9.' _ &X&X&X&X&XH H H           J J J           H H H &X&XH H H . . . X X D D D X X X D D X X X H H H . . &X&X&X$X$X$X$X$X$X$X$X$X$X$X9 8 b =.w.' 1 1 a a ",
"g y A M.n.#.*.| ~._.`.~.%.` A ] &X&X&X&X&XH H H           J J J           H H H &X&XH H H . . . X X D D D X X X D D X X X H H H . . &X&X&X$X$X$X$X$X$X$X$X$X$X$Xc 9.e.i g g =.G.B.-.",
"8 y 0.) A z ` | n.n.a.{ m l z M.&X&X&X&X&XH H H           J J J           H H H &X&XH H H . . . X X D D D X X X D D X X X H H H . . &X&X&X$X$X$X$X$X$X$X$X$X$X$X| ) w y 3 &.*.| *.=.",
"g 8.&./ l v U ' U c g g g &.c.n.&X&X&X&X&XH H H           J J J           H H H &X&XH H H . . . X X X X X X X X D D X X X H H H . . &X&X&X$X$X$X$X$X$X$X$X$X$X$X( ' _ _ =.&.O.C ^ ] ",
"&.0.| C _ m c / 2.z l g b b.D.C.&X&X&X&X&XH H H           J J J           H H H &X&XH H H . . . X X X X X X X X D D X X X H H H . . &X&X&X$X$X$X$X$X$X$X$X$X$X$Xm N C / &.) ^ g z c ",
"*.0.| A / &.h 4.( y 8 h n.#.s.l.&X&X&X&X&XH H H           J J J           H H H &X&XH H H . . . X X X X X X X X D D X X X H H H . . &X&X&X$X$X$X$X$XK K K $X$X$X^ f.-.&.) A 1 3 a 4 ",
"_ f c m ) c.C _ [ g N -.Z.c.b.| &X&X&X&X&XH H H           J J J           H H H &X&XH H H . . . X X X X X X X X D D X X X H H H . . &X&X&X$X$X$X$X$XK K K $X$X$X) 3 3 < 3 c c t z 8 ",
"I a x I ] s.=.&.^ 8 N s.F.%.8.l &X&X&X&X&XH H H           J J J           H H H &X&XH H H . . . X X X X X X X X D D X X X H H H . . &X&X&X$X$X$X$X$XK K K $X$X$Xc c y g b I U c c ^ ",
"U U Y z @.-.B.] z l T *.$.&.I l &X&X&X&X&XJ J J J J J J J J J J H H H H H H H H &X&XH H H . . . X X D D D X X X j.j.X X X H H H . . &X&X&X$X$X$X$X$X$X$X$XK K K P y l 9.9.] m -.a.' ",
"' I c 4 &.-.9.b l l @.&.&.] b c &X&X&X&X&XJ J J J J J J J J J J H H H H H H H H &X&XH H H . . . X X D D D X X X j.j.X X X H H H . . &X&X&X$X$X$X$X$X$X$X$XK K K 4 3 ] C.c.t.-.:.-.A ",
"' k l w =.c._ s s l #.O.C ) c 3 &X&X&X&X&XJ J J J J J J J J J J H H H H H H H H &X&XH H H . . . X X D D D X X X j.j.X X X H H H . . &X&X&X$X$X$X$X$X$X$X$XK K K T +X/.[ ^ =.:.&./ u ",
"Y c x y -.>.0 3 g l | _ t ' c 8 &X&X#X#X#XJ J J J J H H H H H H H H H H H H H H &X&XH H H . . . X X D D D X X X D D X X X H H H . . &X&X&X$X$X$X$X$X$X$X$X$X$X$X^ ].h.` B 9.l.&./ _ ",
"m c t u -.0.a a a s O.7.8 / / I &X&X#X#X#XJ J J J J H H H H H H H H H H H H H H &X&XH H H . . . X X D D D X X X D D X X X H H H . . &X&X&X$X$X$X$X$X$X$X$X$X$X$Xv.C.s.c c 9.0.&.t m ",
"S C l 1 / X.1 < 1 8 I A 1 #X#X#X#X#X#X#X#X%X%X%X%X%X%X%X%X#X#X#X%X%X%X%X%X#X#X#X&X&XH H H . . . X X D D D X X X D D X X X H H H . . &X&X&X$X$X$X$X$X$X$X$X$X$X$Xg.#.Z l w ] 9.2.t 8 ",
"Z A g 1 z z s a g z e y 6 #X#X#X#X#X#X#X#X%X%X%X%X%X%X%X%X#X#X#X%X%X%X%X%X#X#X#X&X%XH H H . . . X X D D D X X X D D X X X H H H . . &X&X&X$X$X$X$X$X$X$X$X$X$X$XP.C.c k s 2.O.t g l ",
"0 k 0 * : 1 3 1 9 Z N N 7 #X#X#X#X#X#X#X#X%X%X%X%X%X%X%X%X#X#X#X%X%X%X%X%X#X#X#X&X&XH H H . . . X X D D D X X X D D X X X H H H . . &X&X&X$X$X$X$X$X$X$X$X$X$X$Xt k l 8 c _ ^ c b u ",
"3 < ; < , : 8 3 ! M.d.M M &X%X%X%X%X%X%X%X#X#X#X%X%X%X%X%X#X#X#X%X%X%X%X%X#X#X#X&X&XH H H . . . X X D D D X X X D D X X X H H H . . &X&X&X$X$X$X$X$X$X$X$X+ + + 8 8 l I ^ / / / b ^ ",
"1 1 p a y B i p.].'.^.!.h.%X%X%X%X%X%X%X%X#X#X#X%X%X%X%X%X#X#X#X%X%X%X%X%X#X#X#X&X&XH H H . . . X X D D D X X X D D X X X H H H . . &X&X&X$X$X$X$X$X$X$X$X+ + + 1 8 u y B ^ ^ {  .=.",
"z 1 s 8 c B y W.W.v.c.*.A %X%X%X%X%X%X%X%X#X#X#X%X%X%X%X%X#X#X#X%X%X%X%X%X#X#X#X&X&XH H H . . . X X D D D X X X D D X X X H H H . . &X&X&X$X$X$X$X$X$X$X$X+ + + 6 z l y c ^ / [ =.b.",
"z g ' ^ c i.~ H.b.l.z.r.] %X%X%X%X%X%X%X%X#X#X#X%X%X%X%X%X%X%X%X%X%X#X#X#X#X#X#X&X&XH H H . . . X X D D D X X X D D X X X H H H . . &X&X&X$X$X$X$X$X+ + + + + + 3 l i B @./ ^ ^ g.B.",
"z l / ^ t `.a.&.m _ / ^ | %X%X%X%X%X%X%X%X#X#X#X%X%X%X%X%X%X%X%X%X%X#X#X#X#X#X#X&X&XH H H . . . X X D D D X X X D D X X X H H H . . &X&X&X$X$X$X$X$X+ + + + + + z ` l.b.y.A / -.v.| ",
"U c c t z x.x.x.x.x.+ + + #X#X#X#X#X%X%X%X%X%X%X#X#X#X#X#X#X#X#X#X#X#X#X#X#X#X#X&X&XH H H . . . X X X X X X X X D D X X X H H H . . &X&X&X$X$X$X+ + Q Q Q Q Q Q + + J.D.v.^ l.W.s.] ",
"I ' / / ) x.x.x.x.x.+ + + #X#X#X#X#X%X%X%X%X%X%X#X#X#X#X#X#X#X#X#X#X#X#X#X#X#X#X&X&XH H H . . . X X X X X X X X D D X X X H H H . . &X&X&X$X$X$X+ + Q Q Q Q Q Q + + *.&.8.y.v.*./ &.",
"c &.@.X.X.x.x.x.x.x.+ + + #X#X#X#X#X%X%X%X%X%X%X#X#X#X#X#X#X#X#X#X#X#X#X#X#X#X#X&X&XH H H . . . X X X X X X X X D D X X X H H H . . &X&X&X$X$X$X+ + Q Q Q Q Q Q + + 7.) r.l.y.) | e.",
"` -._ V y Q Q Q Q Q + + + + + + + + + + + + + + + + + + + x.x.x.+ + + + + + + + + + x.x.x.x.x.x.x.x.x.x.x.+ + + + + + + + + + + + + + + + + + + Q Q Q Q Q Q Q Q + + + + + &./ s.&.) ",
"' #.u 8 z Q Q Q Q Q + + + + + + + + + + + + + + + + + + + x.x.x.+ + + + + + + + + + x.x.x.x.x.x.x.x.x.x.x.+ + + + + + + + + + + + + + + + + + + Q Q Q Q Q Q Q Q + + + + + 9 8 ` r z ",
"@./ V 8 l Q Q Q Q Q + + + + + + + + + + + + + + + + + + + x.x.x.+ + + + + + + + + + x.x.x.x.x.x.x.x.x.x.x.+ + + + + + + + + + + + + + + + + + + Q Q Q Q Q Q Q Q + + + + + g u u A 8 ",
"#.W + + + Q Q Q Q Q Q Q Q Q Q Q Q Q Q Q Q + + + + + + + + + + + + + Q Q Q Q Q Q Q Q Q Q Q Q Q Q Q Q Q Q Q Q Q Q Q Q Q Q Q Q Q Q Q Q Q Q Q Q Q Q Q Q + + + + + + + + + + + + + + x n ",
"B ; + + + Q Q Q Q Q Q Q Q Q Q Q Q Q Q Q Q + + + + + + + + + + + + + Q Q Q Q Q Q Q Q Q Q Q Q Q Q Q Q Q Q Q Q Q p.Q Q Q Q Q Q Q Q Q Q Q Q Q Q Q Q Q Q + + + + + + + + + + + + + + z 7.",
"< p < 8 T l.*.#.l l <.r.-.( V _ ` c z 8 g 8 y z b ; 1 g x / &.&.` _ i i C ).2.t l s z c ' M.a.&.^ T O.) _ s g x [ 8 j y 8 x l t z y ^ O.9 y r.s.&.O.' q.s , 6 t 3 t y c n I c z g u.",
"> 3 t % R #.#.*.1 k 2.c.-.` y / I l c m z i i 9 f < : 3 c _ &.7.l g x O.| z < l q ..z u / v.@.) l u u.^ u l v ^ i.].^.l.8 t 3 6 -.0.&.N N B T.D.( ' n l a g w z 3 3 ( ..] *.7.O.U ' ",
"1 1 ( ) / 0.*.[ = c ..u.@.t g V I C A C z y y c u V 3 g z x O.' t d b c l g 8 1 g _ ( l./ ) ^ C t c 7.b l z ` c.~.^.% k > k l g &.-.} ] _ m R.n._ m u 3 s 2 t l x l c A 0.:.&.` I t ",
"3 8 y I C ` | *.1 c / ! / 8 8 r ^ ' ' c c z y ] e.z d g v _ ' C l l x z d g _ 9.0.O.] ) X.&.i 8 1 1 a 3 z *.V.G.P.B l 0 k p 1 2 3 k z l I Y / ( ' m l t n z 8 l g c ` :.z V z h k k ",
"f 1 x c 9 8 *.[ : 6 / B V w l 8 3 U / S ] t N r w 3 3 8 l _ m 8 t l l l m z U ) ) ^ c ' ..( i s 3 < 2 1 c d.C.v.V.B 3 1 z < 1 l 0 k x c I ' _ _ 2./ @ @.A 3 3 8 0 _ 9.9.i y z w.-.=.",
"d 8 I c 5 7 | ] 3 3 Z 8 l u z g n _ E.G.G.D.7.i 4 t g 8 d l z 8 g m x x c t c c z A <.z Y I b k a 2 3 l x a.#. .v.g.&.&.l.0.0.4.z n ' ( ) ) 9.5.i s.G.J.| 3 8 l.c.s.8 3 =.0.a.0.#.' ",
"f , i 6 1 y &.8.s t N 4 6 4 u l ; oX_.n.V.J.&.^ t 0 w t g d t 3 3 0 x t c t 1 l b _ U y l <.x m 8 g 3 z b  .[ | a.v.d.Q.Q.l.&.] z z ] ' ] ] 9.O.8 4 z s s a 5 :.*.l g l *.b.c.C l u ",
"^ ^ ^ 6 f N z N 9 N / /  Xg y R & `.C.<.<.U 6 5 u y ) @./ ! i 3 y 0.v.n.f.) s z b I _ i l ^ e.' A u l v z -.%.c.v.C.v.M.*.&.] C c _ _ C C i l 1 , 3 a a a 3 8 i z 0 y ] 8.m.O._ k d ",
"U c t 8 8 ` Z.9 z Z / a.P./ ^ -..Xx c 2.<.z e 8 / / s.g.~.^.B.M.M.b.v.0.8.: t l _ &.&.%.0.e.0.X.' l s 3 t !.R.P.3 8 y w 5 ^ i z ^ &.t.s.0.z a p < a l t l v l u v s c <.<.m c y a v ",
"c z 1 3 1 ` A.V h V 0.v.c.*.C | e ` / b 8 g ^ @.)  .-.%.].`.C.n.c.s.i.s.( 1 s l ' 9.&.:.=.] O.=.I l g 8 6 /..XH.: * a 1 1 6 9 9.=.=.E : , l n c ' ( l ] 8.| a.H.*.=.X._ g 3 8 9 s.' ",
"z 3 a 3 6 7.P.9 9 Z M.c.7. .c g g ( C 1 l -.@.0.l.l.[ 9 h b v d l 1 1 3 8 V i X.*.O.T T N ^ C ( ' 9 x l t @Xh.i 1 p 4 o O i V B.0.&.i 1 1 g m U ' ` C ] -.l.C.Q.-.O.^ n l l ) :.y._ ",
"c w s 3 t ) D.*.[ @.c.} y s l %.XX .h h i r.0.*.g.C.G.v.g z 3 3 1 1 3 d z <.-.y.9.` x m ^ 9.m.B.' / 9.' l l 1 < a z I 0.0.&.) ] ] ' s ` 8.Z.C.s.b z #.s.-.W.Q.i./ ^ m a n I ` ) m l "
};
